<svg width="25" height="24" viewBox="0 0 25 24" fill="none" xmlns="http://www.w3.org/2000/svg">
<path d="M12.9998 6.00004V11.4338L17.5148 14.1425C17.7422 14.2791 17.906 14.5005 17.9703 14.7579C18.0345 15.0153 17.9939 15.2876 17.8573 15.515C17.7207 15.7425 17.4993 15.9063 17.242 15.9705C16.9846 16.0348 16.7122 15.9941 16.4848 15.8575L11.4848 12.8575C11.3368 12.7686 11.2143 12.6429 11.1293 12.4927C11.0444 12.3424 10.9997 12.1727 10.9998 12V6.00004C10.9998 5.73483 11.1051 5.48047 11.2927 5.29294C11.4802 5.1054 11.7346 5.00004 11.9998 5.00004C12.265 5.00004 12.5193 5.1054 12.7069 5.29294C12.8944 5.48047 12.9998 5.73483 12.9998 6.00004ZM23.9998 3.00004C23.7346 3.00004 23.4802 3.1054 23.2927 3.29294C23.1051 3.48047 22.9998 3.73483 22.9998 4.00004V6.25004C22.206 5.33004 21.396 4.44379 20.4848 3.52129C18.8171 1.85343 16.6949 0.71399 14.3833 0.245361C12.0717 -0.223269 9.67333 -0.000310421 7.48775 0.886376C5.30218 1.77306 3.42636 3.28416 2.09469 5.23085C0.763018 7.17754 0.0345428 9.47349 0.000289467 11.8318C-0.0339639 14.1902 0.627523 16.5063 1.9021 18.4909C3.17667 20.4754 5.00781 22.0403 7.16671 22.9901C9.32561 23.9399 11.7165 24.2324 14.0407 23.8311C16.3649 23.4298 18.5194 22.3525 20.2348 20.7338C20.3303 20.6435 20.4071 20.5353 20.4608 20.4153C20.5146 20.2953 20.5441 20.166 20.5478 20.0346C20.5515 19.9032 20.5293 19.7723 20.4825 19.6495C20.4356 19.5267 20.3651 19.4143 20.2748 19.3188C20.1845 19.2233 20.0763 19.1464 19.9563 19.0927C19.8363 19.039 19.707 19.0094 19.5756 19.0057C19.4442 19.002 19.3133 19.0242 19.1905 19.0711C19.0677 19.1179 18.9553 19.1885 18.8598 19.2788C17.4298 20.6264 15.6346 21.5229 13.6982 21.8563C11.7618 22.1897 9.77008 21.9452 7.97179 21.1535C6.17349 20.3617 4.64829 19.0577 3.58666 17.4043C2.52503 15.7509 1.97401 13.8214 2.00241 11.8567C2.03081 9.89205 2.63738 7.97927 3.74636 6.35726C4.85534 4.73525 6.41759 3.47589 8.23802 2.73643C10.0585 1.99698 12.0564 1.81021 13.9823 2.19945C15.9083 2.58868 17.6769 3.53668 19.0673 4.92504C20.0848 5.95504 20.976 6.94754 21.8748 8.00004H18.9998C18.7346 8.00004 18.4802 8.1054 18.2927 8.29294C18.1051 8.48047 17.9998 8.73483 17.9998 9.00004C17.9998 9.26526 18.1051 9.51961 18.2927 9.70715C18.4802 9.89469 18.7346 10 18.9998 10H23.9998C24.265 10 24.5193 9.89469 24.7069 9.70715C24.8944 9.51961 24.9998 9.26526 24.9998 9.00004V4.00004C24.9998 3.73483 24.8944 3.48047 24.7069 3.29294C24.5193 3.1054 24.265 3.00004 23.9998 3.00004Z" fill="#A1A1AA"/>
</svg>
