<svg width="33" height="40" viewBox="0 0 33 40" fill="none" xmlns="http://www.w3.org/2000/svg" strokeWidth="5">
<path d="M31.575 17.4668L4.56 0.940585C4.10454 0.661684 3.58288 0.509426 3.0489 0.499538C2.51492 0.489649 1.98798 0.622488 1.5225 0.884334C1.06146 1.14211 0.677393 1.51804 0.409807 1.97347C0.142221 2.42889 0.000770358 2.94737 0 3.47558V36.5243C0.00347394 37.3167 0.321438 38.0752 0.883995 38.6332C1.44655 39.1912 2.20766 39.5029 3 39.5C3.55304 39.4997 4.09534 39.3473 4.5675 39.0593L31.575 22.5331C32.0091 22.2685 32.3679 21.8967 32.6168 21.4534C32.8658 21.0101 32.9966 20.5102 32.9966 20.0018C32.9966 19.4934 32.8658 18.9936 32.6168 18.5503C32.3679 18.107 32.0091 17.7352 31.575 17.4706V17.4668ZM3 36.4887V3.49996L29.9681 20L3 36.4887Z" fill="#A1A1AA"/>
</svg>
