<svg width="16" height="13" viewBox="0 0 16 13" fill="none" xmlns="http://www.w3.org/2000/svg">
<path d="M15.5 6.25C15.4993 5.58771 15.3111 4.93914 14.9572 4.37935C14.6032 3.81957 14.098 3.37146 13.5 3.08688V3C13.4994 2.35576 13.2915 1.72882 12.9069 1.21195C12.5223 0.695069 11.9816 0.315716 11.3647 0.130017C10.7478 -0.0556826 10.0875 -0.0378625 9.48156 0.18084C8.87558 0.399543 8.3561 0.807509 7.99998 1.34438C7.64387 0.807509 7.12438 0.399543 6.5184 0.18084C5.91242 -0.0378625 5.25214 -0.0556826 4.63524 0.130017C4.01835 0.315716 3.47762 0.695069 3.09306 1.21195C2.70851 1.72882 2.50056 2.35576 2.49998 3V3.08688C1.90144 3.37068 1.39573 3.81851 1.04161 4.37833C0.687493 4.93814 0.499512 5.58696 0.499512 6.24937C0.499512 6.91179 0.687493 7.56061 1.04161 8.12042C1.39573 8.68024 1.90144 9.12807 2.49998 9.41187V9.5C2.50056 10.1442 2.70851 10.7712 3.09306 11.2881C3.47762 11.8049 4.01835 12.1843 4.63524 12.37C5.25214 12.5557 5.91242 12.5379 6.5184 12.3192C7.12438 12.1005 7.64387 11.6925 7.99998 11.1556C8.3561 11.6925 8.87558 12.1005 9.48156 12.3192C10.0875 12.5379 10.7478 12.5557 11.3647 12.37C11.9816 12.1843 12.5223 11.8049 12.9069 11.2881C13.2915 10.7712 13.4994 10.1442 13.5 9.5V9.41187C14.0979 9.12751 14.6031 8.67962 14.957 8.12005C15.311 7.56048 15.4992 6.91211 15.5 6.25ZM5.49998 11.5C5.00682 11.4999 4.53108 11.3177 4.16412 10.9882C3.79716 10.6587 3.56487 10.2053 3.51186 9.715C3.67355 9.73807 3.83665 9.74976 3.99998 9.75H4.49998C4.63259 9.75 4.75977 9.69732 4.85353 9.60355C4.9473 9.50979 4.99998 9.38261 4.99998 9.25C4.99998 9.11739 4.9473 8.99021 4.85353 8.89645C4.75977 8.80268 4.63259 8.75 4.49998 8.75H3.99998C3.40971 8.75069 2.83823 8.5425 2.38672 8.16228C1.93521 7.78206 1.6328 7.25434 1.53303 6.67256C1.43326 6.09078 1.54256 5.49246 1.84159 4.98353C2.14062 4.4746 2.61008 4.08789 3.16686 3.89188C3.26428 3.85738 3.34861 3.79355 3.40827 3.70916C3.46792 3.62477 3.49996 3.52397 3.49998 3.42063V3C3.49998 2.46957 3.71069 1.96086 4.08577 1.58579C4.46084 1.21071 4.96955 1 5.49998 1C6.03041 1 6.53912 1.21071 6.9142 1.58579C7.28927 1.96086 7.49998 2.46957 7.49998 3V7.26625C6.95093 6.77243 6.23844 6.49946 5.49998 6.5C5.36737 6.5 5.2402 6.55268 5.14643 6.64645C5.05266 6.74021 4.99998 6.86739 4.99998 7C4.99998 7.13261 5.05266 7.25979 5.14643 7.35355C5.2402 7.44732 5.36737 7.5 5.49998 7.5C6.03041 7.5 6.53912 7.71071 6.9142 8.08579C7.28927 8.46086 7.49998 8.96957 7.49998 9.5C7.49998 10.0304 7.28927 10.5391 6.9142 10.9142C6.53912 11.2893 6.03041 11.5 5.49998 11.5ZM12 8.75H11.5C11.3674 8.75 11.2402 8.80268 11.1464 8.89645C11.0527 8.99021 11 9.11739 11 9.25C11 9.38261 11.0527 9.50979 11.1464 9.60355C11.2402 9.69732 11.3674 9.75 11.5 9.75H12C12.1633 9.74976 12.3264 9.73807 12.4881 9.715C12.4466 10.0992 12.2946 10.4631 12.0507 10.7627C11.8067 11.0624 11.4812 11.2849 11.1134 11.4035C10.7456 11.5221 10.3514 11.5316 9.97835 11.4309C9.6053 11.3301 9.26942 11.1235 9.01131 10.8359C8.75321 10.5484 8.58393 10.1922 8.52394 9.81048C8.46396 9.42876 8.51583 9.03783 8.6733 8.68497C8.83077 8.3321 9.08708 8.03241 9.41125 7.82212C9.73543 7.61183 10.1136 7.49994 10.5 7.5C10.6326 7.5 10.7598 7.44732 10.8535 7.35355C10.9473 7.25979 11 7.13261 11 7C11 6.86739 10.9473 6.74021 10.8535 6.64645C10.7598 6.55268 10.6326 6.5 10.5 6.5C9.76153 6.49946 9.04904 6.77243 8.49998 7.26625V3C8.49998 2.46957 8.7107 1.96086 9.08577 1.58579C9.46084 1.21071 9.96955 1 10.5 1C11.0304 1 11.5391 1.21071 11.9142 1.58579C12.2893 1.96086 12.5 2.46957 12.5 3V3.42063C12.5 3.52397 12.532 3.62477 12.5917 3.70916C12.6513 3.79355 12.7357 3.85738 12.8331 3.89188C13.3899 4.08789 13.8593 4.4746 14.1584 4.98353C14.4574 5.49246 14.5667 6.09078 14.4669 6.67256C14.3672 7.25434 14.0648 7.78206 13.6132 8.16228C13.1617 8.5425 12.5903 8.75069 12 8.75ZM13 5.5C13 5.63261 12.9473 5.75979 12.8535 5.85355C12.7598 5.94732 12.6326 6 12.5 6H12.25C11.6532 6 11.0809 5.76295 10.659 5.34099C10.237 4.91903 9.99998 4.34674 9.99998 3.75V3.5C9.99998 3.36739 10.0527 3.24022 10.1464 3.14645C10.2402 3.05268 10.3674 3 10.5 3C10.6326 3 10.7598 3.05268 10.8535 3.14645C10.9473 3.24022 11 3.36739 11 3.5V3.75C11 4.08152 11.1317 4.39946 11.3661 4.63388C11.6005 4.8683 11.9185 5 12.25 5H12.5C12.6326 5 12.7598 5.05268 12.8535 5.14645C12.9473 5.24021 13 5.36739 13 5.5ZM3.74998 6H3.49998C3.36737 6 3.2402 5.94732 3.14643 5.85355C3.05266 5.75979 2.99998 5.63261 2.99998 5.5C2.99998 5.36739 3.05266 5.24021 3.14643 5.14645C3.2402 5.05268 3.36737 5 3.49998 5H3.74998C4.0815 5 4.39944 4.8683 4.63386 4.63388C4.86828 4.39946 4.99998 4.08152 4.99998 3.75V3.5C4.99998 3.36739 5.05266 3.24022 5.14643 3.14645C5.2402 3.05268 5.36737 3 5.49998 3C5.63259 3 5.75977 3.05268 5.85353 3.14645C5.9473 3.24022 5.99998 3.36739 5.99998 3.5V3.75C5.99998 4.34674 5.76293 4.91903 5.34097 5.34099C4.91901 5.76295 4.34672 6 3.74998 6Z" fill="#84CC16"/>
</svg>
