<svg width="20" height="20" viewBox="0 0 20 20" fill="none" xmlns="http://www.w3.org/2000/svg">
<path d="M10 18.5H19M13 3.5L16 6.5M14.376 2.12198C14.7741 1.72389 15.314 1.50024 15.877 1.50024C16.44 1.50024 16.9799 1.72389 17.378 2.12198C17.7761 2.52007 17.9997 3.05999 17.9997 3.62298C17.9997 4.18596 17.7761 4.72589 17.378 5.12398L5.36798 17.135C5.13007 17.3729 4.836 17.5469 4.51298 17.641L1.64098 18.479C1.55493 18.5041 1.46372 18.5056 1.37689 18.4833C1.29006 18.4611 1.2108 18.4159 1.14742 18.3525C1.08404 18.2892 1.03887 18.2099 1.01662 18.1231C0.994374 18.0362 0.995879 17.945 1.02098 17.859L1.85898 14.987C1.9532 14.6643 2.12722 14.3706 2.36498 14.133L14.376 2.12198Z" stroke="#52525B" strokeWidth="2" strokeLinecap="round" strokeLinecap="round"/>
</svg>
